<svg width="17" height="17" viewBox="0 0 17 17" fill="none" xmlns="http://www.w3.org/2000/svg">
<path d="M13.9003 3.93839C12.5759 2.61126 10.8506 1.83212 8.99802 1.71338V0.996094H9.72849C10.0035 0.996094 10.2265 0.773102 10.2265 0.498047C10.2265 0.222992 10.0035 0 9.72849 0H7.27146C6.9964 0 6.77341 0.222992 6.77341 0.498047C6.77341 0.773102 6.9964 0.996094 7.27146 0.996094H8.00193V1.71338C6.73168 1.79479 5.52139 2.18676 4.45906 2.85304L3.98595 2.37897C3.75568 2.14824 3.44939 2.02121 3.12343 2.02121C2.79748 2.02121 2.49118 2.14828 2.26095 2.37897L1.5414 3.10008C1.06776 3.57465 1.06776 4.34689 1.5414 4.82149L2.01773 5.29882C1.26592 6.5018 0.863297 7.89408 0.863297 9.34847C0.863297 11.3921 1.65751 13.3134 3.09966 14.7586C4.54207 16.204 6.45994 17 8.49997 17C10.54 17 12.4579 16.204 13.9003 14.7586C15.3424 13.3134 16.1366 11.3921 16.1366 9.34847C16.1366 7.30489 15.3424 5.38352 13.9003 3.93839ZM2.24647 3.80372L2.96605 3.08264C3.02276 3.02583 3.089 3.01733 3.12346 3.01733C3.15793 3.01733 3.2242 3.0258 3.28091 3.08264L3.64183 3.44429C3.45466 3.59945 3.27364 3.76411 3.09969 3.93842C2.92624 4.11224 2.76238 4.2931 2.60795 4.4801L2.24647 4.11789C2.16001 4.03126 2.16001 3.89031 2.24647 3.80372ZM8.49997 16.0039C4.83834 16.0039 1.85939 13.0183 1.85939 9.34847C1.85939 5.67866 4.83834 2.69304 8.49997 2.69304C12.1616 2.69304 15.1406 5.67863 15.1406 9.34847C15.1406 13.0183 12.1616 16.0039 8.49997 16.0039Z" fill="#676767"/>
<path d="M8.50003 3.62665C5.35097 3.62665 2.78905 6.19345 2.78905 9.34848C2.78905 12.5035 5.35097 15.0703 8.50003 15.0703C11.6491 15.0703 14.211 12.5035 14.211 9.34848C14.211 6.19345 11.6491 3.62665 8.50003 3.62665ZM8.99807 14.0478V13.4657C8.99807 13.1906 8.77508 12.9676 8.50003 12.9676C8.22497 12.9676 8.00198 13.1906 8.00198 13.4657V14.0478C5.79875 13.8149 4.04316 12.055 3.81131 9.84652H4.38283C4.65789 9.84652 4.88088 9.62353 4.88088 9.34848C4.88088 9.07342 4.65789 8.85043 4.38283 8.85043H3.81134C4.04316 6.64199 5.79875 4.88203 8.00198 4.64911V5.23126C8.00198 5.50631 8.22497 5.7293 8.50003 5.7293C8.77508 5.7293 8.99807 5.50631 8.99807 5.23126V4.64911C11.2013 4.88203 12.9569 6.64199 13.1887 8.85043H12.6172C12.3422 8.85043 12.1192 9.07342 12.1192 9.34848C12.1192 9.62353 12.3422 9.84652 12.6172 9.84652H13.1887C12.9569 12.055 11.2013 13.8149 8.99807 14.0478Z" fill="#676767"/>
<path d="M9.72852 9.06098H9.02587V7.04663C9.02587 6.77158 8.80288 6.54858 8.52782 6.54858C8.25277 6.54858 8.02978 6.77158 8.02978 7.04663V9.55903C8.02978 9.83409 8.25277 10.0571 8.52782 10.0571H9.72852C10.0036 10.0571 10.2266 9.83409 10.2266 9.55903C10.2266 9.28397 10.0036 9.06098 9.72852 9.06098Z" fill="#676767"/>
</svg>
