<svg width="25" height="25" viewBox="0 0 25 25" fill="none" xmlns="http://www.w3.org/2000/svg">
<path d="M12.5 0C5.60762 0 0 5.60762 0 12.5C0 19.3924 5.60762 25 12.5 25C19.3924 25 25 19.3924 25 12.5C25 5.60762 19.3924 0 12.5 0ZM12.5 23.4375C6.46896 23.4375 1.56251 18.531 1.56251 12.5C1.56251 6.46896 6.46896 1.56251 12.5 1.56251C18.531 1.56251 23.4375 6.46896 23.4375 12.5C23.4375 18.531 18.531 23.4375 12.5 23.4375Z" fill="#6B6B6B"/>
<path d="M13.2813 4.6875H11.7188V12.8235L16.6351 17.7398L17.7399 16.6351L13.2813 12.1765V4.6875Z" fill="#6B6B6B"/>
</svg>
