<svg width="25" height="25" viewBox="0 0 25 25" fill="none" xmlns="http://www.w3.org/2000/svg">
<g clip-path="url(#clip0)">
<path d="M11.8691 19.0023C12.0714 19.0023 12.2354 18.8384 12.2354 18.6361V17.9047C12.2354 17.7024 12.0714 17.5385 11.8691 17.5385C11.6669 17.5385 11.5029 17.7024 11.5029 17.9047V18.6361C11.5029 18.8384 11.6669 19.0023 11.8691 19.0023Z" fill="#464646"/>
<path d="M10.3005 19.6521C10.4435 19.5091 10.4435 19.2772 10.3005 19.1342L9.78328 18.617C9.64026 18.474 9.40838 18.474 9.26541 18.617C9.12239 18.7601 9.12239 18.9919 9.26541 19.1349L9.78264 19.6521C9.95525 19.7951 10.1279 19.7951 10.3005 19.6521Z" fill="#464646"/>
<path d="M9.28455 20.8545H8.5531C8.35085 20.8545 8.18689 21.0184 8.18689 21.2207C8.18689 21.423 8.35085 21.5869 8.5531 21.5869H9.28455C9.48679 21.5869 9.65076 21.423 9.65076 21.2207C9.65076 21.0184 9.48679 20.8545 9.28455 20.8545Z" fill="#464646"/>
<path d="M15.1851 20.8545H14.4537C14.2514 20.8545 14.0875 21.0184 14.0875 21.2207C14.0875 21.423 14.2514 21.5869 14.4537 21.5869H15.1851C15.3874 21.5869 15.5513 21.423 15.5513 21.2207C15.5513 21.0184 15.3874 20.8545 15.1851 20.8545Z" fill="#464646"/>
<path d="M14.4729 18.6169C14.3298 18.4739 14.098 18.4739 13.955 18.6169L13.4378 19.1341C13.2947 19.2771 13.2947 19.509 13.4377 19.652C13.6103 19.795 13.783 19.7951 13.9556 19.652L14.4729 19.1348C14.6159 18.9918 14.6159 18.7599 14.4729 18.6169Z" fill="#464646"/>
<path d="M11.8691 19.3915C10.8605 19.3915 10.04 20.2121 10.04 21.2207C10.04 22.2293 10.8605 23.0498 11.8691 23.0498C12.8777 23.0498 13.6983 22.2293 13.6983 21.2207C13.6983 20.2121 12.8777 19.3915 11.8691 19.3915ZM11.8691 22.3174C11.2644 22.3174 10.7724 21.8254 10.7724 21.2207C10.7724 20.7443 11.0778 20.3381 11.5029 20.187V20.4891C11.5029 20.6914 11.6669 20.8553 11.8691 20.8553C12.0714 20.8553 12.2353 20.6914 12.2353 20.4891V20.187C12.6605 20.3381 12.9659 20.7443 12.9659 21.2207C12.9659 21.8254 12.4739 22.3174 11.8691 22.3174Z" fill="#464646"/>
<path d="M21.668 7.623C21.8701 7.623 22.0338 7.45928 22.0338 7.25728V6.72813C22.0338 5.18198 20.7759 3.92412 19.2298 3.92412H17.973C18.0423 2.8833 17.1925 1.97354 16.1488 1.97354H14.4293V1.34106C14.4293 0.601611 13.8277 0 13.0883 0H10.65C9.91053 0 9.30892 0.601611 9.30892 1.34106V1.97354H7.58948C6.54573 1.97354 5.69603 2.8832 5.76517 3.92402H3.36678C2.93899 3.92563 2.85975 4.24263 3.1012 4.54121L6.03289 7.6377L6.52981 14.5252C6.56819 15.0583 6.8366 15.5267 7.23294 15.8355C6.8264 16.1285 6.54349 16.5854 6.48426 17.1177L5.65379 24.5939C5.65394 24.8376 5.77508 24.973 6.01732 25H17.721C17.9632 24.973 18.0844 24.8376 18.0845 24.5939L17.254 17.1177C17.1949 16.5854 16.9119 16.1285 16.5054 15.8355C17.1009 15.3714 17.3118 14.5288 17.2607 13.8016C19.7476 13.929 22.0338 12.1386 22.0338 9.53467V8.85103C22.0338 8.64902 21.8701 8.4853 21.6681 8.4853C21.4661 8.4853 21.3024 8.64902 21.3024 8.85103V9.53467C21.3024 11.7004 19.3777 13.1808 17.3135 13.0702L17.4014 11.851C18.7655 11.981 20.0832 10.9664 20.0832 9.53467V6.72822C20.0832 6.25767 19.7004 5.87485 19.2299 5.87485H17.8326L17.9205 4.65571H19.2298C20.3725 4.65571 21.3023 5.58545 21.3023 6.72822V7.25737C21.3023 7.45928 21.466 7.623 21.668 7.623ZM10.0404 1.34106C10.0404 1.00493 10.3138 0.731494 10.65 0.731494H13.0883C13.4244 0.731494 13.6978 1.00493 13.6978 1.34106V1.95063H10.0405V1.34106H10.0404ZM7.58948 2.70498H16.1488C16.8579 2.70498 17.2031 3.32515 17.2399 3.92412H10.4715C10.2695 3.92412 10.1058 4.08784 10.1058 4.28984C10.1058 4.49185 10.2696 4.65557 10.4715 4.65557H17.1871L16.9286 8.23911C14.3906 7.67446 12.6573 8.13379 11.119 8.54214C9.60872 8.94312 8.40452 9.2624 6.82596 8.46567L6.55105 4.65557H8.87786C9.07986 4.65557 9.24359 4.49185 9.24359 4.28984C9.24359 4.08784 9.07981 3.92412 8.87786 3.92412H6.49827C6.41961 3.31455 6.89505 2.70498 7.58948 2.70498ZM5.92542 6.4602L4.21673 4.65547H5.81771L5.81912 4.67539L5.92542 6.4602ZM15.4363 16.2223C15.9962 16.2223 16.4651 16.6419 16.5269 17.1984L17.3123 24.2686H6.42591L7.21126 17.1985C7.27313 16.642 7.74207 16.2223 8.30193 16.2223H11.0723C11.2743 16.2223 11.438 16.0585 11.438 15.8565C11.438 15.6545 11.2742 15.4908 11.0723 15.4908H8.35364C7.78113 15.4908 7.30052 15.0436 7.25936 14.4726L6.88597 9.29771C8.35892 9.91128 9.81575 9.64502 11.3066 9.24917C12.7832 8.85713 14.4497 8.41538 16.8753 8.97715L16.4788 14.4726C16.4376 15.0436 15.957 15.4908 15.3845 15.4908H12.6659C12.4638 15.4908 12.3001 15.6545 12.3001 15.8565C12.3001 16.0585 12.4638 16.2222 12.6659 16.2222H15.4363V16.2223ZM19.2298 6.6062C19.297 6.6062 19.3517 6.66089 19.3517 6.72813V9.53457C19.3517 10.555 18.3891 11.1724 17.4542 11.1194L17.7798 6.6062H19.2298Z" fill="#464646"/>
</g>
<defs>
<clipPath id="clip0">
<rect width="25" height="25" fill="white"/>
</clipPath>
</defs>
</svg>
